<svg width="96" height="96" viewBox="0 0 96 96" fill="none" xmlns="http://www.w3.org/2000/svg">
<g opacity="0.64" clip-path="url(#clip0_8858_200813)">
<rect width="96" height="96" fill="#FFFEF6"/>
<path opacity="0.5" d="M6 0V96M18 0V96M30 0V96M42 0V96M54 0V96M66 0V96M78 0V96M90 0V96M96 6L3.67176e-06 6M96 18L3.14722e-06 18M96 30L0 30M96 42L0 42M96 54L0 54M96 66L0 66M96 78L0 78M96 90L0 90" stroke="black" stroke-width="0.5"/>
</g>
<defs>
<clipPath id="clip0_8858_200813">
<rect width="96" height="96" fill="white"/>
</clipPath>
</defs>
</svg>
